<svg width="16" height="12" viewBox="0 0 16 12" fill="none" xmlns="http://www.w3.org/2000/svg">
<path fill-rule="evenodd" clip-rule="evenodd" d="M15.1663 10.0003V2.66699C15.1663 1.56242 14.2709 0.666992 13.1663 0.666992L2.83301 0.667002C1.72844 0.667003 0.833008 1.56243 0.833008 2.667V10.0003C0.833008 11.1049 1.72844 12.0003 2.83301 12.0003L13.1663 12.0003C14.2709 12.0003 15.1663 11.1049 15.1663 10.0003ZM13.833 4.1733V10.0003C13.833 10.3685 13.5345 10.667 13.1663 10.667L2.83301 10.667C2.46482 10.667 2.16634 10.3685 2.16634 10.0003L2.16634 4.17321L6.87512 7.37518C7.55384 7.83671 8.44564 7.83671 9.12436 7.37518L13.833 4.1733ZM13.8254 2.56607C13.7768 2.24577 13.5002 2.00032 13.1663 2.00033L2.83301 2.00034C2.49916 2.00034 2.22262 2.24573 2.17394 2.56599L7.62487 6.27261C7.85111 6.42646 8.14837 6.42646 8.37461 6.27261L13.8254 2.56607Z" fill="white"/>
</svg>
